<?xml version="1.0" encoding="UTF-8" standalone="no"?><svg xmlns="http://www.w3.org/2000/svg" xmlns:xlink="http://www.w3.org/1999/xlink" contentScriptType="application/ecmascript" contentStyleType="text/css" height="550px" preserveAspectRatio="none" style="width:195px;height:550px;background:#FFFFFF;" version="1.1" viewBox="0 0 195 550" width="195px" zoomAndPan="magnify"><defs><filter height="300%" id="fr9a8ly718is4" width="300%" x="-1" y="-1"><feGaussianBlur result="blurOut" stdDeviation="2.0"/><feColorMatrix in="blurOut" result="blurOut2" type="matrix" values="0 0 0 0 0 0 0 0 0 0 0 0 0 0 0 0 0 0 .4 0"/><feOffset dx="4.0" dy="4.0" in="blurOut2" result="blurOut3"/><feBlend in="SourceGraphic" in2="blurOut3" mode="normal"/></filter></defs><g><ellipse cx="94.5" cy="20" fill="#000000" filter="url(#fr9a8ly718is4)" rx="10" ry="10" style="stroke:none;stroke-width:1.0;"/><rect fill="#FFFFFF" filter="url(#fr9a8ly718is4)" height="143.8975" style="stroke:#000000;stroke-width:2.0;" width="161" x="14" y="40"/><path d="M136,40 L136,52.1201 L126,62.1201 L14,62.1201 " fill="none" style="stroke:#000000;stroke-width:2.0;"/><text fill="#000000" font-family="sans-serif" font-size="14" lengthAdjust="spacing" textLength="112" x="17" y="57.0439">准备阶段(7~10周)</text><rect fill="#FEFECE" filter="url(#fr9a8ly718is4)" height="36.3887" rx="12.5" ry="12.5" style="stroke:#A80036;stroke-width:1.5;" width="133" x="28" y="79.1201"/><text fill="#000000" font-family="sans-serif" font-size="12" lengthAdjust="spacing" textLength="113" x="38" y="102.8721">需求分析阶段(7~8周)</text><rect fill="#FEFECE" filter="url(#fr9a8ly718is4)" height="36.3887" rx="12.5" ry="12.5" style="stroke:#A80036;stroke-width:1.5;" width="141" x="24" y="135.5088"/><text fill="#000000" font-family="sans-serif" font-size="12" lengthAdjust="spacing" textLength="121" x="34" y="159.2607">UML制图阶段(9~10周)</text><rect fill="#FFFFFF" filter="url(#fr9a8ly718is4)" height="143.8975" style="stroke:#000000;stroke-width:2.0;" width="167" x="11" y="193.8975"/><path d="M141,193.8975 L141,206.0176 L131,216.0176 L11,216.0176 " fill="none" style="stroke:#000000;stroke-width:2.0;"/><text fill="#000000" font-family="sans-serif" font-size="14" lengthAdjust="spacing" textLength="120" x="14" y="210.9414">设计阶段(11~14周)</text><rect fill="#FEFECE" filter="url(#fr9a8ly718is4)" height="36.3887" rx="12.5" ry="12.5" style="stroke:#A80036;stroke-width:1.5;" width="147" x="21" y="233.0176"/><text fill="#000000" font-family="sans-serif" font-size="12" lengthAdjust="spacing" textLength="127" x="31" y="256.7695">架构设计阶段(11~12周)</text><rect fill="#FEFECE" filter="url(#fr9a8ly718is4)" height="36.3887" rx="12.5" ry="12.5" style="stroke:#A80036;stroke-width:1.5;" width="147" x="21" y="289.4063"/><text fill="#000000" font-family="sans-serif" font-size="12" lengthAdjust="spacing" textLength="127" x="31" y="313.1582">详细设计阶段(13~14周)</text><rect fill="#FFFFFF" filter="url(#fr9a8ly718is4)" height="143.8975" style="stroke:#000000;stroke-width:2.0;" width="143" x="23" y="347.7949"/><path d="M131,347.7949 L131,359.915 L121,369.915 L23,369.915 " fill="none" style="stroke:#000000;stroke-width:2.0;"/><text fill="#000000" font-family="sans-serif" font-size="14" lengthAdjust="spacing" textLength="98" x="26" y="364.8389">实现与测试阶段</text><rect fill="#FEFECE" filter="url(#fr9a8ly718is4)" height="36.3887" rx="12.5" ry="12.5" style="stroke:#A80036;stroke-width:1.5;" width="123" x="33" y="386.915"/><text fill="#000000" font-family="sans-serif" font-size="12" lengthAdjust="spacing" textLength="103" x="43" y="410.667">实现阶段(15~16周)</text><rect fill="#FEFECE" filter="url(#fr9a8ly718is4)" height="36.3887" rx="12.5" ry="12.5" style="stroke:#A80036;stroke-width:1.5;" width="123" x="33" y="443.3037"/><text fill="#000000" font-family="sans-serif" font-size="12" lengthAdjust="spacing" textLength="103" x="43" y="467.0557">测试阶段(17~18周)</text><ellipse cx="94.5" cy="522.6924" fill="#FFFFFF" filter="url(#fr9a8ly718is4)" rx="11" ry="11" style="stroke:#000000;stroke-width:1.0;"/><ellipse cx="94.5" cy="522.6924" fill="#000000" rx="6" ry="6" style="stroke:#7F7F7F;stroke-width:1.0;"/><line style="stroke:#A80036;stroke-width:1.5;" x1="94.5" x2="94.5" y1="115.5088" y2="135.5088"/><polygon fill="#A80036" points="90.5,125.5088,94.5,135.5088,98.5,125.5088,94.5,129.5088" style="stroke:#A80036;stroke-width:1.0;"/><line style="stroke:#A80036;stroke-width:1.5;" x1="94.5" x2="94.5" y1="30" y2="79.1201"/><polygon fill="#A80036" points="90.5,69.1201,94.5,79.1201,98.5,69.1201,94.5,73.1201" style="stroke:#A80036;stroke-width:1.0;"/><line style="stroke:#A80036;stroke-width:1.5;" x1="94.5" x2="94.5" y1="269.4063" y2="289.4063"/><polygon fill="#A80036" points="90.5,279.4063,94.5,289.4063,98.5,279.4063,94.5,283.4063" style="stroke:#A80036;stroke-width:1.0;"/><line style="stroke:#A80036;stroke-width:1.5;" x1="94.5" x2="94.5" y1="171.8975" y2="233.0176"/><polygon fill="#A80036" points="90.5,223.0176,94.5,233.0176,98.5,223.0176,94.5,227.0176" style="stroke:#A80036;stroke-width:1.0;"/><line style="stroke:#A80036;stroke-width:1.5;" x1="94.5" x2="94.5" y1="423.3037" y2="443.3037"/><polygon fill="#A80036" points="90.5,433.3037,94.5,443.3037,98.5,433.3037,94.5,437.3037" style="stroke:#A80036;stroke-width:1.0;"/><line style="stroke:#A80036;stroke-width:1.5;" x1="94.5" x2="94.5" y1="325.7949" y2="386.915"/><polygon fill="#A80036" points="90.5,376.915,94.5,386.915,98.5,376.915,94.5,380.915" style="stroke:#A80036;stroke-width:1.0;"/><line style="stroke:#A80036;stroke-width:1.5;" x1="94.5" x2="94.5" y1="479.6924" y2="511.6924"/><polygon fill="#A80036" points="90.5,501.6924,94.5,511.6924,98.5,501.6924,94.5,505.6924" style="stroke:#A80036;stroke-width:1.0;"/><!--MD5=[04aa418c35d944c8f8f5505a65e44add]
@startuml
start
partition 准备阶段(7~10周) {
    :需求分析阶段(7~8周);
:UML制图阶段(9~10周);
}
partition 设计阶段(11~14周) {
    :架构设计阶段(11~12周);
    :详细设计阶段(13~14周);
}
partition 实现与测试阶段 {
    :实现阶段(15~16周);
    :测试阶段(17~18周);
}

stop
@enduml

PlantUML version 1.2022.0(Wed Jan 12 00:16:42 CST 2022)
(GPL source distribution)
Java Runtime: Java(TM) SE Runtime Environment
JVM: Java HotSpot(TM) 64-Bit Server VM
Default Encoding: GBK
Language: zh
Country: CN
--></g></svg>